# xmcd
#
# Track frame offsets:
#	150
#	16945
#	35634
#	51700
#	74911
#	92071
#	106259
#	122059
#	140275
#	155506
#	173269
#	190401
#
# Disc length: 2807 seconds
#
# Revision: 0
# Processed by: cddbd v1.5.1PL2 Copyright (c) Steve Scherf et al.
# Submitted via: EasyCDDAExtractor 9.0.2.1
#
DISCID=a80af50c
DTITLE=Krystel Keller - NEW MOUNTAIN TO CLIMB
DYEAR=2003
DGENRE=Country
TTITLE0=NEW MOUNTAIN TO CLIMB
TTITLE1=NOBODY WANTS TO TRY
TTITLE2=ORDINARY GIRL
TTITLE3=PLAYGROUND OF INNOCENCE
TTITLE4=LOVED
TTITLE5=MAYBE IM CRAZY
TTITLE6=L.O.V.E.
TTITLE7=THE WAY LOVE WORKS
TTITLE8=LEAVING THE SCENE
TTITLE9=STOLEN
TTITLE10=WHILE YOU WERE OUT
TTITLE11=LEFT WITH NO GOODBYES
EXTD=
EXTT0=
EXTT1=
EXTT2=
EXTT3=
EXTT4=
EXTT5=
EXTT6=
EXTT7=
EXTT8=
EXTT9=
EXTT10=
EXTT11=
PLAYORDER=
